<?xml version="1.0" encoding="UTF-8"?>
<svg xmlns="http://www.w3.org/2000/svg" xmlns:xlink="http://www.w3.org/1999/xlink" width="32px" height="32px" viewBox="0 0 32 32" version="1.1">
<g id="surface1">
<path style=" stroke:none;fill-rule:nonzero;fill:rgb(0%,0%,0%);fill-opacity:1;" d="M 3.859375 1.726562 C 2.414062 2.453125 1.535156 3.628906 1.265625 5.1875 C 1.1875 5.675781 1.175781 9.726562 1.226562 16.484375 C 1.289062 25.675781 1.328125 27.078125 1.507812 27.539062 C 1.992188 28.78125 2.785156 29.621094 4.039062 30.238281 L 4.792969 30.605469 L 27.027344 30.605469 L 27.769531 30.261719 C 28.792969 29.777344 29.789062 28.792969 30.238281 27.820312 L 30.605469 27.027344 L 30.605469 4.792969 L 30.25 4.078125 C 29.710938 2.992188 28.996094 2.25 27.960938 1.726562 L 27.054688 1.277344 L 4.765625 1.277344 Z M 22.042969 13.929688 C 21.777344 14.210938 21.484375 14.441406 21.40625 14.441406 C 21.34375 14.441406 20.101562 13.265625 18.65625 11.820312 C 17.214844 10.378906 15.988281 9.203125 15.910156 9.203125 C 15.832031 9.203125 14.605469 10.378906 13.164062 11.820312 C 11.71875 13.265625 10.480469 14.441406 10.402344 14.441406 C 10.3125 14.441406 10.042969 14.199219 9.777344 13.917969 L 9.304688 13.378906 L 15.910156 6.773438 L 22.554688 13.417969 Z M 16.742188 17.957031 L 16.742188 24.027344 L 15.078125 24.027344 L 15.078125 18.042969 C 15.078125 14.746094 15.117188 12.011719 15.167969 11.972656 C 15.207031 11.921875 15.589844 11.886719 16 11.886719 L 16.742188 11.886719 Z M 16.742188 17.957031 "/>
</g>
</svg>
